<svg width="240" height="40" viewBox="0 0 240 40" fill="none" xmlns="http://www.w3.org/2000/svg">
<path d="M80.458 15.795H76.417V27H74.32V15.795H70.27V14.04H80.458V15.795ZM85.743 21.375C85.743 21.051 85.695 20.751 85.599 20.475C85.509 20.193 85.374 19.95 85.194 19.746C85.014 19.536 84.789 19.374 84.519 19.26C84.255 19.14 83.949 19.08 83.601 19.08C82.899 19.08 82.347 19.281 81.945 19.683C81.543 20.085 81.288 20.649 81.18 21.375H85.743ZM81.126 22.563C81.15 23.085 81.231 23.538 81.369 23.922C81.507 24.3 81.69 24.615 81.918 24.867C82.152 25.119 82.428 25.308 82.746 25.434C83.07 25.554 83.43 25.614 83.826 25.614C84.204 25.614 84.531 25.572 84.807 25.488C85.083 25.398 85.323 25.302 85.527 25.2C85.731 25.092 85.905 24.996 86.049 24.912C86.193 24.822 86.325 24.777 86.445 24.777C86.601 24.777 86.721 24.837 86.805 24.957L87.354 25.668C87.126 25.938 86.868 26.166 86.58 26.352C86.292 26.538 85.986 26.691 85.662 26.811C85.338 26.925 85.005 27.006 84.663 27.054C84.321 27.108 83.988 27.135 83.664 27.135C83.028 27.135 82.437 27.03 81.891 26.82C81.351 26.604 80.88 26.289 80.478 25.875C80.082 25.461 79.77 24.948 79.542 24.336C79.32 23.724 79.209 23.019 79.209 22.221C79.209 21.585 79.308 20.991 79.506 20.439C79.71 19.887 79.998 19.407 80.37 18.999C80.748 18.591 81.204 18.27 81.738 18.036C82.278 17.796 82.887 17.676 83.565 17.676C84.129 17.676 84.651 17.769 85.131 17.955C85.611 18.135 86.025 18.402 86.373 18.756C86.721 19.11 86.991 19.545 87.183 20.061C87.381 20.571 87.48 21.153 87.48 21.807C87.48 22.107 87.447 22.308 87.381 22.41C87.315 22.512 87.195 22.563 87.021 22.563H81.126ZM94.7655 19.485C94.7175 19.569 94.6635 19.629 94.6035 19.665C94.5435 19.701 94.4685 19.719 94.3785 19.719C94.2765 19.719 94.1655 19.689 94.0455 19.629C93.9255 19.563 93.7845 19.491 93.6225 19.413C93.4605 19.335 93.2685 19.266 93.0465 19.206C92.8305 19.14 92.5755 19.107 92.2815 19.107C92.0415 19.107 91.8225 19.137 91.6245 19.197C91.4325 19.251 91.2675 19.332 91.1295 19.44C90.9975 19.542 90.8955 19.665 90.8235 19.809C90.7515 19.947 90.7155 20.097 90.7155 20.259C90.7155 20.475 90.7815 20.655 90.9135 20.799C91.0455 20.943 91.2195 21.069 91.4355 21.177C91.6515 21.279 91.8975 21.372 92.1735 21.456C92.4495 21.54 92.7315 21.63 93.0195 21.726C93.3075 21.822 93.5895 21.933 93.8655 22.059C94.1415 22.185 94.3875 22.341 94.6035 22.527C94.8195 22.707 94.9935 22.929 95.1255 23.193C95.2575 23.451 95.3235 23.766 95.3235 24.138C95.3235 24.57 95.2455 24.969 95.0895 25.335C94.9335 25.701 94.7055 26.019 94.4055 26.289C94.1055 26.559 93.7305 26.769 93.2805 26.919C92.8365 27.069 92.3265 27.144 91.7505 27.144C91.4325 27.144 91.1235 27.114 90.8235 27.054C90.5295 27 90.2475 26.925 89.9775 26.829C89.7135 26.727 89.4645 26.607 89.2305 26.469C89.0025 26.331 88.7985 26.181 88.6185 26.019L89.0685 25.281C89.1225 25.191 89.1885 25.122 89.2665 25.074C89.3505 25.02 89.4525 24.993 89.5725 24.993C89.6985 24.993 89.8215 25.035 89.9415 25.119C90.0675 25.197 90.2115 25.284 90.3735 25.38C90.5415 25.476 90.7425 25.566 90.9765 25.65C91.2105 25.728 91.5015 25.767 91.8495 25.767C92.1375 25.767 92.3865 25.734 92.5965 25.668C92.8065 25.596 92.9805 25.5 93.1185 25.38C93.2565 25.26 93.3585 25.125 93.4245 24.975C93.4905 24.819 93.5235 24.654 93.5235 24.48C93.5235 24.246 93.4575 24.054 93.3255 23.904C93.1935 23.754 93.0165 23.625 92.7945 23.517C92.5785 23.409 92.3295 23.313 92.0475 23.229C91.7715 23.145 91.4895 23.055 91.2015 22.959C90.9135 22.863 90.6285 22.752 90.3465 22.626C90.0705 22.5 89.8215 22.341 89.5995 22.149C89.3835 21.951 89.2095 21.714 89.0775 21.438C88.9455 21.156 88.8795 20.814 88.8795 20.412C88.8795 20.046 88.9515 19.698 89.0955 19.368C89.2455 19.038 89.4615 18.747 89.7435 18.495C90.0315 18.243 90.3825 18.045 90.7965 17.901C91.2165 17.751 91.6995 17.676 92.2455 17.676C92.8635 17.676 93.4245 17.775 93.9285 17.973C94.4325 18.171 94.8555 18.441 95.1975 18.783L94.7655 19.485ZM106.052 27H104.117V19.341H99.6439V24.552C99.6439 24.882 99.7249 25.134 99.8869 25.308C100.049 25.482 100.265 25.569 100.535 25.569C100.685 25.569 100.814 25.551 100.922 25.515C101.03 25.473 101.123 25.431 101.201 25.389C101.279 25.341 101.345 25.299 101.399 25.263C101.459 25.221 101.516 25.2 101.57 25.2C101.678 25.2 101.765 25.26 101.831 25.38L102.407 26.325C102.107 26.589 101.753 26.793 101.345 26.937C100.937 27.075 100.517 27.144 100.085 27.144C99.3229 27.144 98.7349 26.931 98.3209 26.505C97.9129 26.073 97.7089 25.467 97.7089 24.687V19.341H96.7009C96.5929 19.341 96.4999 19.308 96.4219 19.242C96.3439 19.17 96.3049 19.065 96.3049 18.927V18.144L97.7899 17.928L98.2129 15.273C98.2429 15.171 98.2939 15.09 98.3659 15.03C98.4379 14.964 98.5339 14.931 98.6539 14.931H99.6439V17.946H106.052V27ZM106.448 15.003C106.448 15.177 106.412 15.342 106.34 15.498C106.274 15.648 106.181 15.783 106.061 15.903C105.941 16.017 105.8 16.11 105.638 16.182C105.482 16.248 105.317 16.281 105.143 16.281C104.969 16.281 104.804 16.248 104.648 16.182C104.498 16.11 104.363 16.017 104.243 15.903C104.129 15.783 104.036 15.648 103.964 15.498C103.898 15.342 103.865 15.177 103.865 15.003C103.865 14.823 103.898 14.655 103.964 14.499C104.036 14.337 104.129 14.199 104.243 14.085C104.363 13.965 104.498 13.872 104.648 13.806C104.804 13.734 104.969 13.698 105.143 13.698C105.317 13.698 105.482 13.734 105.638 13.806C105.8 13.872 105.941 13.965 106.061 14.085C106.181 14.199 106.274 14.337 106.34 14.499C106.412 14.655 106.448 14.823 106.448 15.003ZM108.497 27V17.82H109.667C109.931 17.82 110.099 17.943 110.171 18.189L110.297 18.99C110.465 18.798 110.639 18.624 110.819 18.468C110.999 18.306 111.191 18.168 111.395 18.054C111.605 17.934 111.827 17.841 112.061 17.775C112.301 17.709 112.559 17.676 112.835 17.676C113.129 17.676 113.399 17.718 113.645 17.802C113.891 17.886 114.107 18.006 114.293 18.162C114.485 18.318 114.65 18.507 114.788 18.729C114.926 18.951 115.04 19.2 115.13 19.476C115.268 19.158 115.442 18.885 115.652 18.657C115.862 18.429 116.096 18.243 116.354 18.099C116.612 17.955 116.885 17.85 117.173 17.784C117.467 17.712 117.764 17.676 118.064 17.676C118.556 17.676 118.994 17.754 119.378 17.91C119.768 18.066 120.095 18.294 120.359 18.594C120.629 18.888 120.833 19.251 120.971 19.683C121.109 20.115 121.178 20.607 121.178 21.159V27H119.243V21.159C119.243 20.511 119.102 20.025 118.82 19.701C118.544 19.371 118.133 19.206 117.587 19.206C117.341 19.206 117.11 19.248 116.894 19.332C116.678 19.416 116.489 19.539 116.327 19.701C116.165 19.863 116.036 20.067 115.94 20.313C115.85 20.553 115.805 20.835 115.805 21.159V27H113.87V21.159C113.87 20.487 113.735 19.995 113.465 19.683C113.195 19.365 112.799 19.206 112.277 19.206C111.917 19.206 111.584 19.299 111.278 19.485C110.972 19.665 110.69 19.914 110.432 20.232V27H108.497ZM127.408 17.676C128.086 17.676 128.698 17.787 129.244 18.009C129.796 18.231 130.264 18.546 130.648 18.954C131.038 19.362 131.338 19.857 131.548 20.439C131.758 21.021 131.863 21.675 131.863 22.401C131.863 23.127 131.758 23.781 131.548 24.363C131.338 24.945 131.038 25.443 130.648 25.857C130.264 26.265 129.796 26.58 129.244 26.802C128.698 27.024 128.086 27.135 127.408 27.135C126.724 27.135 126.106 27.024 125.554 26.802C125.008 26.58 124.54 26.265 124.15 25.857C123.76 25.443 123.46 24.945 123.25 24.363C123.04 23.781 122.935 23.127 122.935 22.401C122.935 21.675 123.04 21.021 123.25 20.439C123.46 19.857 123.76 19.362 124.15 18.954C124.54 18.546 125.008 18.231 125.554 18.009C126.106 17.787 126.724 17.676 127.408 17.676ZM127.408 25.623C128.236 25.623 128.851 25.347 129.253 24.795C129.661 24.237 129.865 23.442 129.865 22.41C129.865 21.378 129.661 20.583 129.253 20.025C128.851 19.461 128.236 19.179 127.408 19.179C126.568 19.179 125.944 19.461 125.536 20.025C125.128 20.583 124.924 21.378 124.924 22.41C124.924 23.442 125.128 24.237 125.536 24.795C125.944 25.347 126.568 25.623 127.408 25.623ZM135.531 19.035C135.729 18.831 135.933 18.648 136.143 18.486C136.359 18.318 136.587 18.174 136.827 18.054C137.067 17.934 137.322 17.841 137.592 17.775C137.862 17.709 138.156 17.676 138.474 17.676C138.978 17.676 139.419 17.76 139.797 17.928C140.181 18.096 140.502 18.333 140.76 18.639C141.024 18.945 141.222 19.314 141.354 19.746C141.486 20.172 141.552 20.643 141.552 21.159V27H139.626V21.159C139.626 20.541 139.482 20.061 139.194 19.719C138.912 19.377 138.48 19.206 137.898 19.206C137.466 19.206 137.064 19.305 136.692 19.503C136.326 19.701 135.981 19.971 135.657 20.313V27H133.722V17.82H134.892C135.156 17.82 135.324 17.943 135.396 18.189L135.531 19.035ZM145.828 17.82V27H143.893V17.82H145.828ZM146.152 15.048C146.152 15.222 146.116 15.387 146.044 15.543C145.978 15.699 145.885 15.837 145.765 15.957C145.645 16.071 145.504 16.164 145.342 16.236C145.186 16.302 145.018 16.335 144.838 16.335C144.664 16.335 144.499 16.302 144.343 16.236C144.193 16.164 144.061 16.071 143.947 15.957C143.833 15.837 143.74 15.699 143.668 15.543C143.602 15.387 143.569 15.222 143.569 15.048C143.569 14.868 143.602 14.7 143.668 14.544C143.74 14.388 143.833 14.253 143.947 14.139C144.061 14.019 144.193 13.926 144.343 13.86C144.499 13.788 144.664 13.752 144.838 13.752C145.018 13.752 145.186 13.788 145.342 13.86C145.504 13.926 145.645 14.019 145.765 14.139C145.885 14.253 145.978 14.388 146.044 14.544C146.116 14.7 146.152 14.868 146.152 15.048ZM153.164 22.986C152.474 23.01 151.892 23.067 151.418 23.157C150.944 23.241 150.56 23.352 150.266 23.49C149.972 23.622 149.759 23.781 149.627 23.967C149.501 24.153 149.438 24.357 149.438 24.579C149.438 24.795 149.471 24.981 149.537 25.137C149.609 25.287 149.705 25.413 149.825 25.515C149.951 25.611 150.095 25.683 150.257 25.731C150.425 25.773 150.608 25.794 150.806 25.794C151.31 25.794 151.742 25.701 152.102 25.515C152.468 25.323 152.822 25.047 153.164 24.687V22.986ZM148.034 19.098C149.072 18.132 150.308 17.649 151.742 17.649C152.27 17.649 152.738 17.736 153.146 17.91C153.56 18.078 153.905 18.318 154.181 18.63C154.463 18.942 154.676 19.314 154.82 19.746C154.97 20.172 155.045 20.646 155.045 21.168V27H154.181C153.995 27 153.854 26.973 153.758 26.919C153.662 26.859 153.581 26.742 153.515 26.568L153.326 25.821C153.092 26.031 152.861 26.22 152.633 26.388C152.405 26.55 152.168 26.688 151.922 26.802C151.682 26.916 151.421 27 151.139 27.054C150.863 27.114 150.557 27.144 150.221 27.144C149.849 27.144 149.501 27.093 149.177 26.991C148.859 26.889 148.583 26.736 148.349 26.532C148.115 26.322 147.929 26.064 147.791 25.758C147.659 25.452 147.593 25.092 147.593 24.678C147.593 24.324 147.686 23.979 147.872 23.643C148.064 23.307 148.376 23.007 148.808 22.743C149.246 22.473 149.819 22.251 150.527 22.077C151.241 21.903 152.12 21.804 153.164 21.78V21.168C153.164 20.508 153.023 20.016 152.741 19.692C152.459 19.368 152.045 19.206 151.499 19.206C151.127 19.206 150.815 19.254 150.563 19.35C150.311 19.44 150.092 19.539 149.906 19.647C149.72 19.755 149.555 19.857 149.411 19.953C149.267 20.043 149.114 20.088 148.952 20.088C148.82 20.088 148.706 20.055 148.61 19.989C148.52 19.917 148.445 19.83 148.385 19.728L148.034 19.098ZM159.283 13.68V27H157.348V13.68H159.283ZM167.152 19.485C167.104 19.569 167.05 19.629 166.99 19.665C166.93 19.701 166.855 19.719 166.765 19.719C166.663 19.719 166.552 19.689 166.432 19.629C166.312 19.563 166.171 19.491 166.009 19.413C165.847 19.335 165.655 19.266 165.433 19.206C165.217 19.14 164.962 19.107 164.668 19.107C164.428 19.107 164.209 19.137 164.011 19.197C163.819 19.251 163.654 19.332 163.516 19.44C163.384 19.542 163.282 19.665 163.21 19.809C163.138 19.947 163.102 20.097 163.102 20.259C163.102 20.475 163.168 20.655 163.3 20.799C163.432 20.943 163.606 21.069 163.822 21.177C164.038 21.279 164.284 21.372 164.56 21.456C164.836 21.54 165.118 21.63 165.406 21.726C165.694 21.822 165.976 21.933 166.252 22.059C166.528 22.185 166.774 22.341 166.99 22.527C167.206 22.707 167.38 22.929 167.512 23.193C167.644 23.451 167.71 23.766 167.71 24.138C167.71 24.57 167.632 24.969 167.476 25.335C167.32 25.701 167.092 26.019 166.792 26.289C166.492 26.559 166.117 26.769 165.667 26.919C165.223 27.069 164.713 27.144 164.137 27.144C163.819 27.144 163.51 27.114 163.21 27.054C162.916 27 162.634 26.925 162.364 26.829C162.1 26.727 161.851 26.607 161.617 26.469C161.389 26.331 161.185 26.181 161.005 26.019L161.455 25.281C161.509 25.191 161.575 25.122 161.653 25.074C161.737 25.02 161.839 24.993 161.959 24.993C162.085 24.993 162.208 25.035 162.328 25.119C162.454 25.197 162.598 25.284 162.76 25.38C162.928 25.476 163.129 25.566 163.363 25.65C163.597 25.728 163.888 25.767 164.236 25.767C164.524 25.767 164.773 25.734 164.983 25.668C165.193 25.596 165.367 25.5 165.505 25.38C165.643 25.26 165.745 25.125 165.811 24.975C165.877 24.819 165.91 24.654 165.91 24.48C165.91 24.246 165.844 24.054 165.712 23.904C165.58 23.754 165.403 23.625 165.181 23.517C164.965 23.409 164.716 23.313 164.434 23.229C164.158 23.145 163.876 23.055 163.588 22.959C163.3 22.863 163.015 22.752 162.733 22.626C162.457 22.5 162.208 22.341 161.986 22.149C161.77 21.951 161.596 21.714 161.464 21.438C161.332 21.156 161.266 20.814 161.266 20.412C161.266 20.046 161.338 19.698 161.482 19.368C161.632 19.038 161.848 18.747 162.13 18.495C162.418 18.243 162.769 18.045 163.183 17.901C163.603 17.751 164.086 17.676 164.632 17.676C165.25 17.676 165.811 17.775 166.315 17.973C166.819 18.171 167.242 18.441 167.584 18.783L167.152 19.485Z" fill="white"/>
</svg>
